<svg width="126.69" height="126" viewBox="0 0 203 246" fill="none" xmlns="http://www.w3.org/2000/svg">
<path d="M166.346 48.4727V41.2C166.346 35.4258 161.665 30.7384 155.891 30.7242H80.4365C74.6553 30.7242 69.9607 35.4187 69.9607 41.2V76.0509H42.3825C40.8769 76.0509 39.6553 77.2725 39.6553 78.7782V124.233C39.6553 125.746 40.8769 126.96 42.3825 126.96H69.9607V177.109C69.9607 182.89 74.6553 187.585 80.4365 187.585H155.869C161.651 187.571 166.324 182.883 166.324 177.109V48.5436C166.324 48.5436 166.346 48.5082 166.346 48.4727ZM75.4365 41.0722C75.4436 38.3024 77.688 36.0651 80.4578 36.0509H155.871C158.64 36.0651 160.871 38.3095 160.871 41.0722V45.7455H75.416L75.4365 41.0722ZM45.1093 81.5049H115.415V121.505H103C102.276 121.512 101.587 121.796 101.075 122.307L90.564 132.819V124.232C90.5711 123.515 90.2799 122.819 89.7614 122.307C89.2501 121.796 88.5611 121.512 87.8367 121.505H45.1094L45.1093 81.5049ZM85.1093 126.959V139.403C85.1164 140.504 85.784 141.491 86.7996 141.91C87.1263 142.052 87.4814 142.123 87.8365 142.13C88.561 142.13 89.257 141.846 89.7613 141.327L104.122 126.967H118.142V126.96C119.655 126.96 120.869 125.745 120.869 124.232V78.7778C120.869 77.2721 119.655 76.0505 118.142 76.0505H75.4145V51.1996H160.869V166.981H75.4145V126.981L85.1093 126.959ZM160.869 177.109C160.869 179.871 158.639 182.116 155.869 182.13H80.4365C77.6667 182.116 75.4295 179.878 75.4153 177.109V172.435H160.87L160.869 177.109Z" fill="#83555E"/>
<path d="M110.586 180H125.728C127.233 180 128.455 178.778 128.455 177.273C128.455 175.767 127.233 174.545 125.728 174.545H110.586C109.073 174.545 107.858 175.767 107.858 177.273C107.858 178.778 109.073 180 110.586 180Z" fill="#83555E"/>
<path d="M117.545 38.1818C117.197 38.2599 116.864 38.402 116.565 38.6009C116.416 38.7003 116.274 38.8068 116.146 38.9276C115.642 39.4318 115.351 40.1208 115.344 40.8381C115.344 41.5696 115.628 42.2799 116.146 42.7983C116.274 42.919 116.416 43.0256 116.565 43.1108C116.707 43.2244 116.864 43.3168 117.034 43.3807C117.197 43.4872 117.368 43.5725 117.545 43.6364H118.071C119.179 43.6435 120.173 42.983 120.599 41.9673C121.018 40.9517 120.784 39.7728 120.003 38.9986C119.364 38.3452 118.448 38.0398 117.545 38.1818Z" fill="#83555E"/>
<path d="M57.5456 96.6764H103C104.506 96.6764 105.727 95.4548 105.727 93.9491C105.727 92.4363 104.506 91.2218 103 91.2218H57.5456C56.04 91.2218 54.8184 92.4363 54.8184 93.9491C54.8184 95.4548 56.04 96.6764 57.5456 96.6764Z" fill="#83555E"/>
<path d="M75.4147 111.818H95.4147C96.9275 111.818 98.142 110.597 98.142 109.091C98.142 107.585 96.9275 106.364 95.4147 106.364H57.5456C56.04 106.364 54.8184 107.585 54.8184 109.091C54.8184 110.597 56.04 111.818 57.5456 111.818H75.4147Z" fill="#83555E"/>
<path d="M15.6153 225.364H14.8376C14.8234 225.263 14.7944 225.174 14.7506 225.096C14.7068 225.017 14.6506 224.949 14.5819 224.893C14.5133 224.838 14.434 224.795 14.344 224.766C14.2552 224.736 14.1588 224.721 14.0546 224.721C13.8664 224.721 13.7024 224.768 13.5628 224.861C13.4231 224.954 13.3148 225.089 13.2378 225.266C13.1609 225.443 13.1224 225.657 13.1224 225.909C13.1224 226.168 13.1609 226.386 13.2378 226.562C13.316 226.739 13.4249 226.872 13.5645 226.962C13.7042 227.052 13.8658 227.097 14.0493 227.097C14.1523 227.097 14.2475 227.083 14.3351 227.056C14.4239 227.029 14.5026 226.989 14.5713 226.937C14.6399 226.884 14.6968 226.819 14.7417 226.744C14.7879 226.668 14.8199 226.581 14.8376 226.484L15.6153 226.488C15.5952 226.655 15.5449 226.816 15.4644 226.971C15.3851 227.125 15.278 227.263 15.143 227.385C15.0093 227.505 14.8495 227.601 14.6636 227.672C14.479 227.742 14.27 227.777 14.0368 227.777C13.7125 227.777 13.4225 227.704 13.1668 227.557C12.9123 227.41 12.7111 227.198 12.5631 226.919C12.4163 226.641 12.343 226.304 12.343 225.909C12.343 225.513 12.4175 225.175 12.5667 224.897C12.7158 224.619 12.9182 224.407 13.1739 224.261C13.4296 224.115 13.7172 224.041 14.0368 224.041C14.2475 224.041 14.4429 224.071 14.6228 224.13C14.8039 224.189 14.9643 224.276 15.104 224.389C15.2436 224.502 15.3573 224.64 15.4449 224.803C15.5336 224.966 15.5905 225.153 15.6153 225.364ZM16.1524 227.727V225H16.8857V225.476H16.9142C16.9639 225.307 17.0473 225.179 17.1645 225.092C17.2817 225.005 17.4166 224.961 17.5693 224.961C17.6072 224.961 17.6481 224.963 17.6919 224.968C17.7356 224.973 17.7741 224.979 17.8073 224.988V225.659C17.7718 225.648 17.7226 225.639 17.6599 225.63C17.5972 225.622 17.5397 225.618 17.4877 225.618C17.3764 225.618 17.277 225.642 17.1894 225.691C17.103 225.738 17.0343 225.804 16.9834 225.89C16.9337 225.975 16.9088 226.073 16.9088 226.184V227.727H16.1524ZM19.3143 227.781C19.0337 227.781 18.7923 227.724 18.5898 227.61C18.3886 227.495 18.2335 227.333 18.1246 227.124C18.0157 226.913 17.9613 226.664 17.9613 226.376C17.9613 226.096 18.0157 225.849 18.1246 225.637C18.2335 225.426 18.3868 225.26 18.5845 225.142C18.7834 225.024 19.0166 224.964 19.2841 224.964C19.464 224.964 19.6315 224.993 19.7866 225.051C19.9428 225.108 20.079 225.194 20.195 225.309C20.3121 225.424 20.4033 225.568 20.4684 225.742C20.5335 225.915 20.5661 226.117 20.5661 226.349V226.557H18.2631V226.088H19.854C19.854 225.98 19.8304 225.883 19.783 225.799C19.7357 225.715 19.67 225.649 19.5859 225.602C19.5031 225.553 19.4066 225.529 19.2965 225.529C19.1817 225.529 19.0799 225.556 18.9911 225.609C18.9035 225.661 18.8349 225.732 18.7852 225.82C18.7354 225.908 18.71 226.006 18.7088 226.113V226.559C18.7088 226.694 18.7337 226.81 18.7834 226.909C18.8343 227.007 18.9059 227.083 18.9982 227.136C19.0906 227.189 19.2 227.216 19.3267 227.216C19.4107 227.216 19.4877 227.204 19.5575 227.18C19.6274 227.157 19.6871 227.121 19.7369 227.074C19.7866 227.027 19.8245 226.969 19.8505 226.9L20.5501 226.946C20.5146 227.114 20.4418 227.261 20.3317 227.386C20.2228 227.511 20.0819 227.608 19.9091 227.678C19.7375 227.746 19.5392 227.781 19.3143 227.781ZM21.8374 227.779C21.6634 227.779 21.5083 227.749 21.3722 227.688C21.236 227.627 21.1283 227.536 21.049 227.417C20.9709 227.296 20.9318 227.145 20.9318 226.966C20.9318 226.814 20.9596 226.687 21.0153 226.584C21.0709 226.481 21.1467 226.398 21.2425 226.335C21.3384 226.272 21.4473 226.225 21.5692 226.193C21.6924 226.161 21.8214 226.139 21.9563 226.126C22.1149 226.109 22.2428 226.094 22.3398 226.08C22.4369 226.064 22.5073 226.042 22.5511 226.012C22.5949 225.982 22.6168 225.939 22.6168 225.881V225.87C22.6168 225.758 22.5813 225.671 22.5103 225.609C22.4405 225.547 22.341 225.517 22.212 225.517C22.0759 225.517 21.9676 225.547 21.8871 225.607C21.8066 225.666 21.7533 225.741 21.7273 225.831L21.0277 225.774C21.0632 225.608 21.133 225.465 21.2372 225.344C21.3414 225.223 21.4757 225.129 21.6403 225.064C21.806 224.998 21.9978 224.964 22.2156 224.964C22.3671 224.964 22.5121 224.982 22.6506 225.018C22.7902 225.053 22.9139 225.108 23.0217 225.183C23.1306 225.257 23.2164 225.353 23.2791 225.471C23.3419 225.587 23.3732 225.726 23.3732 225.888V227.727H22.6559V227.349H22.6346C22.5908 227.434 22.5322 227.509 22.4588 227.575C22.3854 227.638 22.2972 227.689 22.1942 227.725C22.0913 227.761 21.9723 227.779 21.8374 227.779ZM22.054 227.257C22.1652 227.257 22.2635 227.235 22.3487 227.191C22.4339 227.146 22.5008 227.086 22.5494 227.01C22.5979 226.934 22.6222 226.848 22.6222 226.752V226.463C22.5985 226.478 22.5659 226.493 22.5245 226.506C22.4843 226.518 22.4387 226.529 22.3878 226.539C22.3369 226.549 22.286 226.558 22.2351 226.566C22.1842 226.573 22.138 226.58 22.0966 226.586C22.0078 226.599 21.9303 226.619 21.864 226.648C21.7977 226.676 21.7462 226.715 21.7095 226.763C21.6728 226.81 21.6545 226.87 21.6545 226.941C21.6545 227.044 21.6918 227.122 21.7663 227.177C21.8421 227.23 21.938 227.257 22.054 227.257ZM25.4107 225V225.568H23.7683V225H25.4107ZM24.1412 224.347H24.8975V226.889C24.8975 226.959 24.9082 227.013 24.9295 227.053C24.9508 227.09 24.9804 227.117 25.0183 227.132C25.0574 227.148 25.1023 227.156 25.1532 227.156C25.1887 227.156 25.2243 227.153 25.2598 227.147C25.2953 227.14 25.3225 227.134 25.3414 227.131L25.4604 227.694C25.4225 227.705 25.3693 227.719 25.3006 227.734C25.2319 227.751 25.1485 227.761 25.0502 227.765C24.868 227.772 24.7082 227.747 24.5708 227.692C24.4347 227.636 24.3288 227.55 24.253 227.433C24.1773 227.315 24.14 227.167 24.1412 226.989V224.347ZM27.117 227.781C26.8365 227.781 26.595 227.724 26.3926 227.61C26.1913 227.495 26.0363 227.333 25.9274 227.124C25.8185 226.913 25.764 226.664 25.764 226.376C25.764 226.096 25.8185 225.849 25.9274 225.637C26.0363 225.426 26.1896 225.26 26.3873 225.142C26.5861 225.024 26.8193 224.964 27.0868 224.964C27.2667 224.964 27.4342 224.993 27.5893 225.051C27.7456 225.108 27.8817 225.194 27.9977 225.309C28.1149 225.424 28.206 225.568 28.2711 225.742C28.3362 225.915 28.3688 226.117 28.3688 226.349V226.557H26.0659V226.088H27.6568C27.6568 225.98 27.6331 225.883 27.5858 225.799C27.5384 225.715 27.4727 225.649 27.3887 225.602C27.3058 225.553 27.2093 225.529 27.0993 225.529C26.9844 225.529 26.8826 225.556 26.7939 225.609C26.7063 225.661 26.6376 225.732 26.5879 225.82C26.5382 225.908 26.5127 226.006 26.5115 226.113V226.559C26.5115 226.694 26.5364 226.81 26.5861 226.909C26.637 227.007 26.7086 227.083 26.801 227.136C26.8933 227.189 27.0028 227.216 27.1294 227.216C27.2135 227.216 27.2904 227.204 27.3603 227.18C27.4301 227.157 27.4899 227.121 27.5396 227.074C27.5893 227.027 27.6272 226.969 27.6532 226.9L28.3528 226.946C28.3173 227.114 28.2445 227.261 28.1344 227.386C28.0255 227.511 27.8846 227.608 27.7118 227.678C27.5402 227.746 27.3419 227.781 27.117 227.781ZM29.8674 227.772C29.6602 227.772 29.4726 227.718 29.3045 227.612C29.1376 227.504 29.005 227.346 28.9068 227.138C28.8097 226.928 28.7612 226.671 28.7612 226.367C28.7612 226.055 28.8115 225.795 28.9121 225.588C29.0127 225.379 29.1465 225.224 29.3134 225.121C29.4815 225.017 29.6655 224.964 29.8656 224.964C30.0183 224.964 30.1455 224.991 30.2473 225.043C30.3503 225.094 30.4332 225.157 30.4959 225.234C30.5598 225.31 30.6084 225.385 30.6415 225.458H30.6646V224.091H31.4192V227.727H30.6735V227.29H30.6415C30.606 227.366 30.5557 227.441 30.4906 227.516C30.4267 227.589 30.3432 227.65 30.2402 227.699C30.1384 227.747 30.0141 227.772 29.8674 227.772ZM30.1071 227.17C30.229 227.17 30.332 227.137 30.416 227.07C30.5012 227.003 30.5663 226.909 30.6113 226.788C30.6575 226.667 30.6806 226.526 30.6806 226.364C30.6806 226.201 30.6581 226.061 30.6131 225.941C30.5681 225.821 30.503 225.729 30.4178 225.664C30.3326 225.599 30.229 225.566 30.1071 225.566C29.9828 225.566 29.878 225.6 29.7928 225.668C29.7076 225.735 29.6431 225.829 29.5993 225.948C29.5555 226.068 29.5336 226.206 29.5336 226.364C29.5336 226.522 29.5555 226.663 29.5993 226.784C29.6442 226.905 29.7087 227 29.7928 227.069C29.878 227.136 29.9828 227.17 30.1071 227.17ZM33.2125 227.727V224.091H33.9689V225.458H33.992C34.0252 225.385 34.0731 225.31 34.1358 225.234C34.1998 225.157 34.2826 225.094 34.3844 225.043C34.4874 224.991 34.6152 224.964 34.7679 224.964C34.9668 224.964 35.1503 225.017 35.3184 225.121C35.4864 225.224 35.6208 225.379 35.7214 225.588C35.822 225.795 35.8723 226.055 35.8723 226.367C35.8723 226.671 35.8232 226.928 35.725 227.138C35.6279 227.346 35.4953 227.504 35.3272 227.612C35.1603 227.718 34.9733 227.772 34.7662 227.772C34.6194 227.772 34.4945 227.747 34.3915 227.699C34.2897 227.65 34.2063 227.589 34.1412 227.516C34.0761 227.441 34.0263 227.366 33.992 227.29H33.9583V227.727H33.2125ZM33.9529 226.364C33.9529 226.526 33.9754 226.667 34.0204 226.788C34.0654 226.909 34.1305 227.003 34.2157 227.07C34.301 227.137 34.4045 227.17 34.5265 227.17C34.6496 227.17 34.7537 227.136 34.839 227.069C34.9242 227 34.9887 226.905 35.0325 226.784C35.0775 226.663 35.1 226.522 35.1 226.364C35.1 226.206 35.0781 226.068 35.0343 225.948C34.9905 225.829 34.926 225.735 34.8407 225.668C34.7555 225.6 34.6507 225.566 34.5265 225.566C34.4033 225.566 34.2992 225.599 34.214 225.664C34.1299 225.729 34.0654 225.821 34.0204 225.941C33.9754 226.061 33.9529 226.201 33.9529 226.364ZM36.7561 228.75C36.6602 228.75 36.5703 228.742 36.4862 228.727C36.4034 228.713 36.3347 228.694 36.2803 228.672L36.4507 228.107C36.5395 228.134 36.6194 228.149 36.6904 228.152C36.7626 228.154 36.8248 228.137 36.8769 228.102C36.9301 228.066 36.9733 228.006 37.0065 227.921L37.0509 227.805L36.0725 225H36.868L37.4326 227.003H37.461L38.031 225H38.8318L37.7718 228.022C37.7209 228.169 37.6516 228.297 37.564 228.406C37.4776 228.516 37.3681 228.6 37.2355 228.659C37.103 228.72 36.9432 228.75 36.7561 228.75ZM41.8427 225V225.568H40.1594V225H41.8427ZM40.5447 227.727V224.803C40.5447 224.605 40.5832 224.441 40.6602 224.311C40.7383 224.181 40.8448 224.083 40.9798 224.018C41.1147 223.953 41.268 223.92 41.4396 223.92C41.5556 223.92 41.6616 223.929 41.7575 223.947C41.8545 223.965 41.9267 223.981 41.9741 223.995L41.8391 224.563C41.8095 224.554 41.7728 224.545 41.729 224.537C41.6864 224.528 41.6426 224.524 41.5977 224.524C41.4864 224.524 41.4089 224.55 41.3651 224.602C41.3213 224.653 41.2994 224.725 41.2994 224.817V227.727H40.5447ZM42.9848 227.779C42.8108 227.779 42.6557 227.749 42.5196 227.688C42.3835 227.627 42.2758 227.536 42.1965 227.417C42.1183 227.296 42.0793 227.145 42.0793 226.966C42.0793 226.814 42.1071 226.687 42.1627 226.584C42.2184 226.481 42.2941 226.398 42.39 226.335C42.4859 226.272 42.5948 226.225 42.7167 226.193C42.8398 226.161 42.9688 226.139 43.1038 226.126C43.2624 226.109 43.3902 226.094 43.4873 226.08C43.5844 226.064 43.6548 226.042 43.6986 226.012C43.7424 225.982 43.7643 225.939 43.7643 225.881V225.87C43.7643 225.758 43.7288 225.671 43.6578 225.609C43.5879 225.547 43.4885 225.517 43.3595 225.517C43.2233 225.517 43.115 225.547 43.0345 225.607C42.954 225.666 42.9008 225.741 42.8747 225.831L42.1752 225.774C42.2107 225.608 42.2805 225.465 42.3847 225.344C42.4888 225.223 42.6232 225.129 42.7877 225.064C42.9535 224.998 43.1452 224.964 43.363 224.964C43.5145 224.964 43.6595 224.982 43.798 225.018C43.9377 225.053 44.0614 225.108 44.1691 225.183C44.278 225.257 44.3638 225.353 44.4266 225.471C44.4893 225.587 44.5207 225.726 44.5207 225.888V227.727H43.8034V227.349H43.782C43.7383 227.434 43.6797 227.509 43.6063 227.575C43.5329 227.638 43.4447 227.689 43.3417 227.725C43.2387 227.761 43.1198 227.779 42.9848 227.779ZM43.2014 227.257C43.3127 227.257 43.411 227.235 43.4962 227.191C43.5814 227.146 43.6483 227.086 43.6968 227.01C43.7454 226.934 43.7696 226.848 43.7696 226.752V226.463C43.7459 226.478 43.7134 226.493 43.672 226.506C43.6317 226.518 43.5861 226.529 43.5352 226.539C43.4843 226.549 43.4334 226.558 43.3825 226.566C43.3316 226.573 43.2855 226.58 43.2441 226.586C43.1553 226.599 43.0777 226.619 43.0115 226.648C42.9452 226.676 42.8937 226.715 42.857 226.763C42.8203 226.81 42.8019 226.87 42.8019 226.941C42.8019 227.044 42.8392 227.122 42.9138 227.177C42.9896 227.23 43.0854 227.257 43.2014 227.257ZM45.1075 227.727V225H45.8639V227.727H45.1075ZM45.4875 224.648C45.375 224.648 45.2786 224.611 45.1981 224.537C45.1188 224.461 45.0791 224.37 45.0791 224.265C45.0791 224.161 45.1188 224.071 45.1981 223.997C45.2786 223.921 45.375 223.883 45.4875 223.883C45.5999 223.883 45.6958 223.921 45.7751 223.997C45.8556 224.071 45.8959 224.161 45.8959 224.265C45.8959 224.37 45.8556 224.461 45.7751 224.537C45.6958 224.611 45.5999 224.648 45.4875 224.648ZM48.739 225.778L48.0465 225.82C48.0347 225.761 48.0092 225.708 47.9702 225.661C47.9311 225.612 47.8796 225.574 47.8157 225.545C47.753 225.515 47.6778 225.501 47.5902 225.501C47.473 225.501 47.3742 225.526 47.2937 225.575C47.2132 225.624 47.1729 225.689 47.1729 225.771C47.1729 225.836 47.199 225.891 47.2511 225.936C47.3031 225.981 47.3925 226.017 47.5192 226.044L48.0128 226.143C48.2779 226.198 48.4756 226.286 48.6058 226.406C48.736 226.527 48.8011 226.686 48.8011 226.882C48.8011 227.061 48.7485 227.218 48.6431 227.353C48.5389 227.488 48.3957 227.593 48.2134 227.669C48.0323 227.743 47.8234 227.781 47.5866 227.781C47.2256 227.781 46.938 227.705 46.7237 227.555C46.5107 227.404 46.3858 227.198 46.3491 226.937L47.093 226.898C47.1155 227.008 47.17 227.092 47.2564 227.15C47.3428 227.207 47.4535 227.235 47.5884 227.235C47.721 227.235 47.8275 227.21 47.908 227.159C47.9897 227.107 48.0311 227.04 48.0323 226.958C48.0311 226.89 48.0021 226.834 47.9453 226.79C47.8885 226.745 47.8009 226.71 47.6825 226.687L47.2102 226.593C46.9439 226.539 46.7456 226.447 46.6154 226.316C46.4864 226.184 46.4219 226.017 46.4219 225.813C46.4219 225.638 46.4692 225.487 46.5639 225.36C46.6598 225.234 46.7942 225.136 46.967 225.067C47.141 224.999 47.3446 224.964 47.5778 224.964C47.9222 224.964 48.1933 225.037 48.391 225.183C48.5898 225.328 48.7058 225.527 48.739 225.778ZM50.0551 227.779C49.8811 227.779 49.7261 227.749 49.5899 227.688C49.4538 227.627 49.3461 227.536 49.2668 227.417C49.1887 227.296 49.1496 227.145 49.1496 226.966C49.1496 226.814 49.1774 226.687 49.233 226.584C49.2887 226.481 49.3644 226.398 49.4603 226.335C49.5562 226.272 49.6651 226.225 49.787 226.193C49.9101 226.161 50.0392 226.139 50.1741 226.126C50.3327 226.109 50.4606 226.094 50.5576 226.08C50.6547 226.064 50.7251 226.042 50.7689 226.012C50.8127 225.982 50.8346 225.939 50.8346 225.881V225.87C50.8346 225.758 50.7991 225.671 50.7281 225.609C50.6582 225.547 50.5588 225.517 50.4298 225.517C50.2936 225.517 50.1853 225.547 50.1048 225.607C50.0244 225.666 49.9711 225.741 49.945 225.831L49.2455 225.774C49.281 225.608 49.3508 225.465 49.455 225.344C49.5592 225.223 49.6935 225.129 49.858 225.064C50.0238 224.998 50.2155 224.964 50.4333 224.964C50.5848 224.964 50.7298 224.982 50.8683 225.018C51.008 225.053 51.1317 225.108 51.2394 225.183C51.3483 225.257 51.4342 225.353 51.4969 225.471C51.5596 225.587 51.591 225.726 51.591 225.888V227.727H50.8737V227.349H50.8524C50.8086 227.434 50.75 227.509 50.6766 227.575C50.6032 227.638 50.515 227.689 50.412 227.725C50.309 227.761 50.1901 227.779 50.0551 227.779ZM50.2718 227.257C50.383 227.257 50.4813 227.235 50.5665 227.191C50.6517 227.146 50.7186 227.086 50.7671 227.01C50.8157 226.934 50.8399 226.848 50.8399 226.752V226.463C50.8163 226.478 50.7837 226.493 50.7423 226.506C50.702 226.518 50.6565 226.529 50.6056 226.539C50.5547 226.549 50.5038 226.558 50.4529 226.566C50.402 226.573 50.3558 226.58 50.3144 226.586C50.2256 226.599 50.1481 226.619 50.0818 226.648C50.0155 226.676 49.964 226.715 49.9273 226.763C49.8906 226.81 49.8722 226.87 49.8722 226.941C49.8722 227.044 49.9095 227.122 49.9841 227.177C50.0599 227.23 50.1557 227.257 50.2718 227.257ZM52.9342 224.091V227.727H52.1778V224.091H52.9342ZM54.7724 227.781C54.4966 227.781 54.258 227.722 54.0568 227.605C53.8568 227.486 53.7023 227.322 53.5934 227.111C53.4845 226.899 53.43 226.654 53.43 226.374C53.43 226.093 53.4845 225.846 53.5934 225.636C53.7023 225.424 53.8568 225.259 54.0568 225.142C54.258 225.024 54.4966 224.964 54.7724 224.964C55.0482 224.964 55.2861 225.024 55.4862 225.142C55.6874 225.259 55.8424 225.424 55.9513 225.636C56.0603 225.846 56.1147 226.093 56.1147 226.374C56.1147 226.654 56.0603 226.899 55.9513 227.111C55.8424 227.322 55.6874 227.486 55.4862 227.605C55.2861 227.722 55.0482 227.781 54.7724 227.781ZM54.7759 227.195C54.9014 227.195 55.0062 227.159 55.0902 227.088C55.1742 227.016 55.2376 226.918 55.2802 226.793C55.324 226.669 55.3459 226.528 55.3459 226.369C55.3459 226.21 55.324 226.069 55.2802 225.945C55.2376 225.82 55.1742 225.722 55.0902 225.65C55.0062 225.578 54.9014 225.542 54.7759 225.542C54.6493 225.542 54.5427 225.578 54.4563 225.65C54.3711 225.722 54.3066 225.82 54.2628 225.945C54.2202 226.069 54.1989 226.21 54.1989 226.369C54.1989 226.528 54.2202 226.669 54.2628 226.793C54.3066 226.918 54.3711 227.016 54.4563 227.088C54.5427 227.159 54.6493 227.195 54.7759 227.195ZM59.0613 225L58.1078 227.727H57.2555L56.302 225H57.101L57.6674 226.951H57.6958L58.2605 225H59.0613ZM60.6033 227.781C60.3228 227.781 60.0813 227.724 59.8789 227.61C59.6777 227.495 59.5226 227.333 59.4137 227.124C59.3048 226.913 59.2504 226.664 59.2504 226.376C59.2504 226.096 59.3048 225.849 59.4137 225.637C59.5226 225.426 59.6759 225.26 59.8736 225.142C60.0724 225.024 60.3056 224.964 60.5732 224.964C60.7531 224.964 60.9206 224.993 61.0756 225.051C61.2319 225.108 61.368 225.194 61.484 225.309C61.6012 225.424 61.6924 225.568 61.7575 225.742C61.8226 225.915 61.8551 226.117 61.8551 226.349V226.557H59.5522V226.088H61.1431C61.1431 225.98 61.1194 225.883 61.0721 225.799C61.0247 225.715 60.959 225.649 60.875 225.602C60.7921 225.553 60.6957 225.529 60.5856 225.529C60.4708 225.529 60.369 225.556 60.2802 225.609C60.1926 225.661 60.1239 225.732 60.0742 225.82C60.0245 225.908 59.9991 226.006 59.9979 226.113V226.559C59.9979 226.694 60.0227 226.81 60.0724 226.909C60.1233 227.007 60.195 227.083 60.2873 227.136C60.3796 227.189 60.4891 227.216 60.6158 227.216C60.6998 227.216 60.7768 227.204 60.8466 227.18C60.9164 227.157 60.9762 227.121 61.0259 227.074C61.0756 227.027 61.1135 226.969 61.1396 226.9L61.8391 226.946C61.8036 227.114 61.7308 227.261 61.6207 227.386C61.5118 227.511 61.371 227.608 61.1982 227.678C61.0265 227.746 60.8282 227.781 60.6033 227.781ZM62.3487 227.727V225H63.082V225.476H63.1104C63.1602 225.307 63.2436 225.179 63.3608 225.092C63.478 225.005 63.6129 224.961 63.7656 224.961C63.8035 224.961 63.8443 224.963 63.8881 224.968C63.9319 224.973 63.9704 224.979 64.0036 224.988V225.659C63.968 225.648 63.9189 225.639 63.8562 225.63C63.7934 225.622 63.736 225.618 63.6839 225.618C63.5727 225.618 63.4732 225.642 63.3857 225.691C63.2992 225.738 63.2306 225.804 63.1797 225.89C63.13 225.975 63.1051 226.073 63.1051 226.184V227.727H62.3487ZM66.6638 225.778L65.9713 225.82C65.9595 225.761 65.934 225.708 65.895 225.661C65.8559 225.612 65.8044 225.574 65.7405 225.545C65.6778 225.515 65.6026 225.501 65.515 225.501C65.3978 225.501 65.299 225.526 65.2185 225.575C65.138 225.624 65.0977 225.689 65.0977 225.771C65.0977 225.836 65.1238 225.891 65.1759 225.936C65.228 225.981 65.3173 226.017 65.444 226.044L65.9376 226.143C66.2027 226.198 66.4004 226.286 66.5306 226.406C66.6608 226.527 66.7259 226.686 66.7259 226.882C66.7259 227.061 66.6733 227.218 66.5679 227.353C66.4637 227.488 66.3205 227.593 66.1382 227.669C65.9571 227.743 65.7482 227.781 65.5115 227.781C65.1504 227.781 64.8628 227.705 64.6485 227.555C64.4355 227.404 64.3106 227.198 64.2739 226.937L65.0178 226.898C65.0403 227.008 65.0948 227.092 65.1812 227.15C65.2676 227.207 65.3783 227.235 65.5132 227.235C65.6458 227.235 65.7523 227.21 65.8328 227.159C65.9145 227.107 65.9559 227.04 65.9571 226.958C65.9559 226.89 65.9269 226.834 65.8701 226.79C65.8133 226.745 65.7257 226.71 65.6073 226.687L65.135 226.593C64.8687 226.539 64.6704 226.447 64.5402 226.316C64.4112 226.184 64.3467 226.017 64.3467 225.813C64.3467 225.638 64.394 225.487 64.4887 225.36C64.5846 225.234 64.719 225.136 64.8918 225.067C65.0658 224.999 65.2694 224.964 65.5026 224.964C65.847 224.964 66.1181 225.037 66.3158 225.183C66.5146 225.328 66.6307 225.527 66.6638 225.778Z" fill="#83555E"/>
<path d="M13.8593 234.091V234.659H12.176V234.091H13.8593ZM12.5613 236.818V233.894C12.5613 233.696 12.5998 233.532 12.6768 233.402C12.7549 233.272 12.8614 233.174 12.9964 233.109C13.1313 233.044 13.2846 233.011 13.4562 233.011C13.5722 233.011 13.6782 233.02 13.7741 233.038C13.8711 233.056 13.9433 233.072 13.9907 233.086L13.8557 233.654C13.8261 233.645 13.7894 233.636 13.7456 233.627C13.703 233.619 13.6592 233.615 13.6143 233.615C13.503 233.615 13.4255 233.641 13.3817 233.693C13.3379 233.744 13.316 233.816 13.316 233.908V236.818H12.5613ZM14.3214 236.818V234.091H15.0547V234.567H15.0831C15.1328 234.397 15.2163 234.27 15.3335 234.183C15.4506 234.096 15.5856 234.052 15.7383 234.052C15.7762 234.052 15.817 234.054 15.8608 234.059C15.9046 234.064 15.9431 234.07 15.9762 234.078V234.75C15.9407 234.739 15.8916 234.73 15.8288 234.721C15.7661 234.713 15.7087 234.709 15.6566 234.709C15.5453 234.709 15.4459 234.733 15.3583 234.782C15.2719 234.829 15.2032 234.895 15.1523 234.98C15.1026 235.066 15.0778 235.164 15.0778 235.275V236.818H14.3214ZM17.4726 236.871C17.1968 236.871 16.9582 236.813 16.757 236.696C16.557 236.577 16.4025 236.413 16.2936 236.202C16.1847 235.99 16.1302 235.745 16.1302 235.465C16.1302 235.183 16.1847 234.937 16.2936 234.727C16.4025 234.515 16.557 234.35 16.757 234.233C16.9582 234.115 17.1968 234.055 17.4726 234.055C17.7484 234.055 17.9863 234.115 18.1863 234.233C18.3876 234.35 18.5426 234.515 18.6515 234.727C18.7604 234.937 18.8149 235.183 18.8149 235.465C18.8149 235.745 18.7604 235.99 18.6515 236.202C18.5426 236.413 18.3876 236.577 18.1863 236.696C17.9863 236.813 17.7484 236.871 17.4726 236.871ZM17.4761 236.286C17.6016 236.286 17.7064 236.25 17.7904 236.179C17.8744 236.107 17.9378 236.009 17.9804 235.884C18.0242 235.76 18.0461 235.618 18.0461 235.46C18.0461 235.301 18.0242 235.16 17.9804 235.036C17.9378 234.911 17.8744 234.813 17.7904 234.741C17.7064 234.669 17.6016 234.632 17.4761 234.632C17.3495 234.632 17.2429 234.669 17.1565 234.741C17.0713 234.813 17.0068 234.911 16.963 235.036C16.9204 235.16 16.8991 235.301 16.8991 235.46C16.8991 235.618 16.9204 235.76 16.963 235.884C17.0068 236.009 17.0713 236.107 17.1565 236.179C17.2429 236.25 17.3495 236.286 17.4761 236.286ZM19.3067 236.818V234.091H20.0276V234.572H20.0596C20.1164 234.412 20.2111 234.286 20.3437 234.194C20.4762 234.102 20.6349 234.055 20.8195 234.055C21.0065 234.055 21.1657 234.102 21.2971 234.196C21.4285 234.288 21.5161 234.413 21.5599 234.572H21.5883C21.644 234.416 21.7446 234.291 21.8902 234.197C22.037 234.103 22.2104 234.055 22.4104 234.055C22.6649 234.055 22.8715 234.136 23.0301 234.299C23.1899 234.46 23.2698 234.688 23.2698 234.984V236.818H22.5152V235.133C22.5152 234.982 22.4749 234.868 22.3944 234.792C22.314 234.716 22.2133 234.679 22.0926 234.679C21.9553 234.679 21.8482 234.722 21.7712 234.81C21.6943 234.896 21.6558 235.011 21.6558 235.153V236.818H20.9225V235.117C20.9225 234.983 20.884 234.877 20.8071 234.798C20.7313 234.718 20.6313 234.679 20.507 234.679C20.423 234.679 20.3472 234.7 20.2797 234.743C20.2135 234.784 20.1608 234.843 20.1217 234.918C20.0827 234.993 20.0631 235.08 20.0631 235.181V236.818H19.3067ZM28.0803 233.182V236.818H27.4162L25.8342 234.529H25.8075V236.818H25.0387V233.182H25.7134L27.283 235.469H27.315V233.182H28.0803ZM29.9335 236.871C29.6577 236.871 29.4192 236.813 29.218 236.696C29.0179 236.577 28.8634 236.413 28.7545 236.202C28.6456 235.99 28.5912 235.745 28.5912 235.465C28.5912 235.183 28.6456 234.937 28.7545 234.727C28.8634 234.515 29.0179 234.35 29.218 234.233C29.4192 234.115 29.6577 234.055 29.9335 234.055C30.2093 234.055 30.4472 234.115 30.6473 234.233C30.8485 234.35 31.0036 234.515 31.1125 234.727C31.2214 234.937 31.2758 235.183 31.2758 235.465C31.2758 235.745 31.2214 235.99 31.1125 236.202C31.0036 236.413 30.8485 236.577 30.6473 236.696C30.4472 236.813 30.2093 236.871 29.9335 236.871ZM29.9371 236.286C30.0625 236.286 30.1673 236.25 30.2513 236.179C30.3354 236.107 30.3987 236.009 30.4413 235.884C30.4851 235.76 30.507 235.618 30.507 235.46C30.507 235.301 30.4851 235.16 30.4413 235.036C30.3987 234.911 30.3354 234.813 30.2513 234.741C30.1673 234.669 30.0625 234.632 29.9371 234.632C29.8104 234.632 29.7039 234.669 29.6175 234.741C29.5322 234.813 29.4677 234.911 29.4239 235.036C29.3813 235.16 29.36 235.301 29.36 235.46C29.36 235.618 29.3813 235.76 29.4239 235.884C29.4677 236.009 29.5322 236.107 29.6175 236.179C29.7039 236.25 29.8104 236.286 29.9371 236.286ZM33.5166 235.657V234.091H34.273V236.818H33.5468V236.323H33.5184C33.4568 236.483 33.3544 236.611 33.2112 236.708C33.0692 236.805 32.8957 236.854 32.691 236.854C32.5087 236.854 32.3483 236.812 32.2098 236.729C32.0713 236.647 31.963 236.529 31.8849 236.376C31.8079 236.223 31.7689 236.04 31.7677 235.827V234.091H32.5241V235.692C32.5252 235.853 32.5684 235.981 32.6537 236.074C32.7389 236.168 32.8531 236.214 32.9964 236.214C33.0875 236.214 33.1727 236.194 33.252 236.152C33.3314 236.11 33.3953 236.047 33.4438 235.964C33.4935 235.881 33.5178 235.779 33.5166 235.657ZM35.6344 235.241V236.818H34.878V234.091H35.5989V234.572H35.6309C35.6912 234.413 35.7924 234.288 35.9345 234.196C36.0765 234.102 36.2488 234.055 36.4512 234.055C36.6406 234.055 36.8057 234.097 36.9466 234.18C37.0874 234.263 37.1969 234.381 37.275 234.535C37.3532 234.687 37.3922 234.87 37.3922 235.082V236.818H36.6358V235.217C36.637 235.05 36.5944 234.92 36.508 234.826C36.4216 234.731 36.3026 234.684 36.1511 234.684C36.0493 234.684 35.9593 234.706 35.8812 234.75C35.8043 234.793 35.7439 234.857 35.7001 234.941C35.6575 235.024 35.6356 235.124 35.6344 235.241ZM39.1598 236.818V233.182H40.5945C40.8703 233.182 41.1052 233.234 41.2994 233.34C41.4935 233.444 41.6415 233.589 41.7433 233.775C41.8462 233.96 41.8977 234.173 41.8977 234.414C41.8977 234.656 41.8456 234.869 41.7415 235.053C41.6373 235.238 41.4864 235.382 41.2887 235.485C41.0922 235.588 40.8543 235.639 40.5749 235.639H39.6605V235.023H40.4506C40.5986 235.023 40.7205 234.998 40.8164 234.947C40.9135 234.895 40.9857 234.823 41.033 234.732C41.0816 234.64 41.1058 234.534 41.1058 234.414C41.1058 234.293 41.0816 234.188 41.033 234.098C40.9857 234.007 40.9135 233.936 40.8164 233.887C40.7193 233.836 40.5962 233.81 40.4471 233.81H39.9286V236.818H39.1598ZM42.3829 236.818V234.091H43.1162V234.567H43.1446C43.1943 234.397 43.2778 234.27 43.395 234.183C43.5122 234.096 43.6471 234.052 43.7998 234.052C43.8377 234.052 43.8785 234.054 43.9223 234.059C43.9661 234.064 44.0046 234.07 44.0377 234.078V234.75C44.0022 234.739 43.9531 234.73 43.8904 234.721C43.8276 234.713 43.7702 234.709 43.7181 234.709C43.6069 234.709 43.5074 234.733 43.4198 234.782C43.3334 234.829 43.2648 234.895 43.2139 234.98C43.1642 235.066 43.1393 235.164 43.1393 235.275V236.818H42.3829ZM45.5341 236.871C45.2583 236.871 45.0198 236.813 44.8185 236.696C44.6185 236.577 44.464 236.413 44.3551 236.202C44.2462 235.99 44.1918 235.745 44.1918 235.465C44.1918 235.183 44.2462 234.937 44.3551 234.727C44.464 234.515 44.6185 234.35 44.8185 234.233C45.0198 234.115 45.2583 234.055 45.5341 234.055C45.8099 234.055 46.0478 234.115 46.2479 234.233C46.4491 234.35 46.6042 234.515 46.7131 234.727C46.822 234.937 46.8764 235.183 46.8764 235.465C46.8764 235.745 46.822 235.99 46.7131 236.202C46.6042 236.413 46.4491 236.577 46.2479 236.696C46.0478 236.813 45.8099 236.871 45.5341 236.871ZM45.5376 236.286C45.6631 236.286 45.7679 236.25 45.8519 236.179C45.936 236.107 45.9993 236.009 46.0419 235.884C46.0857 235.76 46.1076 235.618 46.1076 235.46C46.1076 235.301 46.0857 235.16 46.0419 235.036C45.9993 234.911 45.936 234.813 45.8519 234.741C45.7679 234.669 45.6631 234.632 45.5376 234.632C45.411 234.632 45.3045 234.669 45.218 234.741C45.1328 234.813 45.0683 234.911 45.0245 235.036C44.9819 235.16 44.9606 235.301 44.9606 235.46C44.9606 235.618 44.9819 235.76 45.0245 235.884C45.0683 236.009 45.1328 236.107 45.218 236.179C45.3045 236.25 45.411 236.286 45.5376 236.286ZM47.3683 234.091H48.1246V236.953C48.1246 237.164 48.0832 237.334 48.0004 237.464C47.9175 237.595 47.7985 237.69 47.6435 237.75C47.4896 237.811 47.3055 237.841 47.0913 237.841C47.0652 237.841 47.0404 237.84 47.0167 237.839C46.9918 237.839 46.9658 237.839 46.9386 237.837V237.246C46.9587 237.247 46.9764 237.248 46.9918 237.248C47.006 237.249 47.0214 237.25 47.038 237.25C47.1599 237.25 47.2451 237.224 47.2937 237.172C47.3434 237.121 47.3683 237.044 47.3683 236.941V234.091ZM47.7447 233.739C47.6334 233.739 47.5375 233.702 47.457 233.627C47.3765 233.552 47.3363 233.461 47.3363 233.356C47.3363 233.252 47.3765 233.162 47.457 233.088C47.5375 233.012 47.6334 232.974 47.7447 232.974C47.8583 232.974 47.9548 233.012 48.0341 233.088C48.1146 233.162 48.1548 233.252 48.1548 233.356C48.1548 233.461 48.1146 233.552 48.0341 233.627C47.9548 233.702 47.8583 233.739 47.7447 233.739ZM49.9735 236.871C49.6929 236.871 49.4514 236.815 49.249 236.701C49.0478 236.586 48.8927 236.424 48.7838 236.214C48.6749 236.004 48.6205 235.755 48.6205 235.467C48.6205 235.186 48.6749 234.94 48.7838 234.728C48.8927 234.516 49.046 234.351 49.2437 234.233C49.4426 234.115 49.6758 234.055 49.9433 234.055C50.1232 234.055 50.2907 234.084 50.4458 234.142C50.602 234.199 50.7381 234.285 50.8541 234.4C50.9713 234.515 51.0625 234.659 51.1276 234.833C51.1927 235.006 51.2252 235.208 51.2252 235.44V235.648H48.9223V235.179H50.5132C50.5132 235.07 50.4896 234.974 50.4422 234.89C50.3949 234.806 50.3292 234.74 50.2451 234.693C50.1623 234.644 50.0658 234.62 49.9557 234.62C49.8409 234.62 49.7391 234.647 49.6503 234.7C49.5627 234.752 49.4941 234.822 49.4443 234.911C49.3946 234.999 49.3692 235.096 49.368 235.204V235.65C49.368 235.785 49.3928 235.901 49.4426 236C49.4935 236.098 49.5651 236.174 49.6574 236.227C49.7497 236.28 49.8592 236.307 49.9859 236.307C50.0699 236.307 50.1469 236.295 50.2167 236.271C50.2865 236.248 50.3463 236.212 50.396 236.165C50.4458 236.117 50.4836 236.059 50.5097 235.991L51.2093 236.037C51.1737 236.205 51.1009 236.352 50.9909 236.477C50.882 236.602 50.7411 236.699 50.5683 236.768C50.3966 236.837 50.1984 236.871 49.9735 236.871ZM52.9511 236.871C52.6717 236.871 52.4314 236.812 52.2302 236.694C52.0302 236.574 51.8763 236.409 51.7686 236.197C51.662 235.985 51.6088 235.741 51.6088 235.465C51.6088 235.186 51.6626 234.941 51.7703 234.73C51.8792 234.518 52.0337 234.353 52.2338 234.235C52.4338 234.115 52.6717 234.055 52.9475 234.055C53.1855 234.055 53.3938 234.099 53.5725 234.185C53.7513 234.271 53.8927 234.393 53.9969 234.549C54.1011 234.705 54.1585 234.889 54.1691 235.099H53.4553C53.4352 234.963 53.382 234.854 53.2955 234.771C53.2103 234.687 53.0985 234.645 52.96 234.645C52.8428 234.645 52.7404 234.677 52.6528 234.741C52.5664 234.803 52.4989 234.895 52.4504 235.016C52.4018 235.137 52.3776 235.283 52.3776 235.455C52.3776 235.629 52.4012 235.777 52.4486 235.898C52.4971 236.02 52.5652 236.113 52.6528 236.177C52.7404 236.241 52.8428 236.273 52.96 236.273C53.0464 236.273 53.1239 236.255 53.1926 236.22C53.2624 236.184 53.3198 236.133 53.3648 236.065C53.411 235.997 53.4411 235.914 53.4553 235.819H54.1691C54.1573 236.027 54.1005 236.21 53.9987 236.369C53.8981 236.526 53.759 236.649 53.5814 236.738C53.4039 236.827 53.1937 236.871 52.9511 236.871ZM56.104 234.091V234.659H54.4616V234.091H56.104ZM54.8345 233.437H55.5909V235.98C55.5909 236.05 55.6016 236.104 55.6229 236.143C55.6442 236.181 55.6738 236.208 55.7116 236.223C55.7507 236.239 55.7957 236.246 55.8466 236.246C55.8821 236.246 55.9176 236.243 55.9531 236.238C55.9886 236.23 56.0159 236.225 56.0348 236.222L56.1538 236.784C56.1159 236.796 56.0626 236.81 55.994 236.825C55.9253 236.842 55.8419 236.852 55.7436 236.855C55.5613 236.863 55.4015 236.838 55.2642 236.783C55.1281 236.727 55.0221 236.641 54.9464 236.523C54.8706 236.406 54.8333 236.258 54.8345 236.08V233.437Z" fill="#83555E"/>
<rect y="213" width="76" height="24" fill="#E9C798"/>
</svg>
