<svg width="138.73" height="137.09" viewBox="0 0 216 255" fill="none" xmlns="http://www.w3.org/2000/svg">
<path d="M185.453 103.636V45.8164C185.453 42.9044 183.088 40.5465 180.183 40.5465H52.001C49.089 40.5465 46.7312 42.9116 46.7312 45.8164L46.7241 103.636V119.453C46.7241 122.365 49.0892 124.723 51.9939 124.723H100.899L95.9918 135.632C95.8071 136.179 95.8071 136.903 96.1764 137.45C96.5386 137.997 97.0855 138.359 97.6324 138.359H134.543C135.09 138.359 135.815 137.997 135.999 137.45C136.361 136.903 136.361 136.356 136.184 135.632L131.276 124.723H180.182C183.094 124.723 185.452 122.358 185.452 119.453L185.453 103.636ZM50.1836 45.8164C50.1836 44.9073 50.908 44.1828 51.8171 44.1828H179.813C180.723 44.1828 181.447 44.9073 181.447 45.8164L181.454 101.818H50.1832L50.1836 45.8164ZM131.64 134.729H100.362L104.907 124.729H127.087L131.64 134.729ZM181.818 119.452C181.818 120.361 181.094 121.086 180.185 121.086L128.366 121.093H52.0028C51.0937 121.093 50.3693 120.368 50.3693 119.459L50.3622 105.454H181.819L181.818 119.452Z" fill="#83555E"/>
<path d="M116 116.002C118.18 116.002 119.821 114.368 119.821 112.181C119.821 110 118.187 108.36 116 108.36C113.819 108.36 112.179 109.993 112.179 112.181C112.179 114.361 113.819 116.002 116 116.002Z" fill="#83555E"/>
<path d="M60.9072 67.82L73.0875 55.6396C73.812 54.9152 73.812 53.8214 73.0875 53.0971C72.3631 52.3726 71.2693 52.3726 70.545 53.0971L58.3646 65.2774C57.6402 66.0019 57.6402 67.0956 58.3646 67.82C59.0891 68.5444 60.1828 68.5444 60.9072 67.82Z" fill="#83555E"/>
<path d="M82.5489 53.0891L59.0907 76.5473C58.3663 77.2717 58.3663 78.3654 59.0907 79.0898C59.8151 79.8142 60.9089 79.8142 61.6332 79.0898L85.0914 55.6389C85.8159 54.9145 85.8159 53.8207 85.0914 53.0963C84.367 52.3648 83.2732 52.3647 82.5489 53.0891Z" fill="#83555E"/>
<path d="M171.269 147.996C169.635 147.996 167.995 148.359 166.539 149.09C162.54 150.908 160.36 154.907 160.36 158.905C160.36 160.539 160.722 162.18 161.454 163.636L164.543 169.999C166.361 173.998 170.36 176.178 174.358 176.178C175.992 176.178 177.633 175.816 179.089 175.084C183.087 173.266 185.267 169.268 185.267 165.269C185.267 163.636 184.905 161.995 184.174 160.539L181.084 154.175C179.273 150.361 175.452 147.996 171.269 147.996ZM177.455 172.002C176.361 172.549 175.275 172.726 174.365 172.726C171.638 172.726 169.096 171.27 167.817 168.543L164.728 162.179C164.181 161.086 164.003 159.999 164.003 159.09C164.003 156.91 164.912 154.907 166.546 153.451L169.997 160.361C170.36 161.27 171.453 161.632 172.363 161.27C173.272 160.908 173.634 159.814 173.272 158.905L169.82 151.995C170.367 151.81 170.729 151.81 171.276 151.81C174.003 151.81 176.546 153.266 177.824 155.993L180.914 162.357C181.461 163.451 181.638 164.537 181.638 165.446C181.638 167.996 180.182 170.723 177.455 172.002Z" fill="#83555E"/>
<path d="M140.184 148.905H65.6384C64.0048 148.905 62.3642 149.815 61.8173 151.448L52.3642 172.726C52.1795 173.273 52.002 173.635 52.002 174.182C52.002 175.091 52.3642 176 52.911 176.547C53.4579 177.272 54.367 177.641 55.4536 177.641H150.184C151.094 177.641 152.003 177.279 152.727 176.547C153.274 175.823 153.636 175.091 153.636 174.182C153.636 173.635 153.451 173.273 153.274 172.726L143.821 151.455C143.274 149.999 141.817 148.905 140.184 148.905ZM65.0911 152.911C65.2757 152.726 65.4533 152.549 65.638 152.549H139.998C140.183 152.549 140.545 152.734 140.545 152.911L149.998 174.006L55.8143 173.999L65.0911 152.911Z" fill="#83555E"/>
<path d="M61.2692 171.095C61.6314 171.641 62.1783 172.004 62.7251 172.004H143.272C143.819 172.004 144.544 171.641 144.728 171.095C145.091 170.548 145.091 170.001 144.913 169.276L138.912 155.64C138.549 154.916 138.002 154.546 137.278 154.546H68.7271C68.0027 154.546 67.2712 154.908 67.0936 155.64L61.0922 169.276C60.7299 169.816 60.907 170.548 61.2692 171.095ZM66.9084 165.093H71.4539L70.1826 168.183H65.4524L66.9084 165.093ZM83.2721 158.367L82.363 161.457H76.7237L77.995 158.367H83.2721ZM92.363 158.367L92.0008 161.457H86.184L87.0931 158.367H92.363ZM118.727 158.367L119.636 161.457H113.996L113.634 158.367H118.727ZM127.818 158.367L129.089 161.457H123.45L122.54 158.367H127.818ZM140.36 168.183H135.63L134.359 165.093H138.904L140.36 168.183ZM131.816 168.183H125.268L124.359 165.093H130.545L131.816 168.183ZM95.0906 165.093H101.092V168.183H94.7284L95.0906 165.093ZM90.9074 168.183H84.1815L85.0906 165.093H91.2695L90.9074 168.183ZM104.728 165.093H110.73L111.092 168.183H104.728L104.728 165.093ZM114.366 165.093H120.545L121.454 168.183H114.906L114.366 165.093ZM110.183 161.457H104.728V158.367H109.821L110.183 161.457ZM101.092 161.457H95.6375L95.9998 158.367H101.092L101.092 161.457ZM81.4539 165.093L80.5448 168.183H73.9964L75.2678 165.093H81.4539ZM137.456 161.457H132.91L131.639 158.367H136L137.456 161.457ZM69.9975 158.367H74.1808L72.9095 161.457H68.5488L69.9975 158.367Z" fill="#83555E"/>
<path d="M28.6153 225.364H27.8376C27.8234 225.263 27.7944 225.174 27.7506 225.096C27.7068 225.017 27.6506 224.949 27.5819 224.893C27.5133 224.838 27.434 224.795 27.344 224.766C27.2552 224.736 27.1588 224.721 27.0546 224.721C26.8664 224.721 26.7024 224.768 26.5628 224.861C26.4231 224.954 26.3148 225.089 26.2378 225.266C26.1609 225.443 26.1224 225.657 26.1224 225.909C26.1224 226.168 26.1609 226.386 26.2378 226.562C26.316 226.739 26.4249 226.872 26.5645 226.962C26.7042 227.052 26.8658 227.097 27.0493 227.097C27.1523 227.097 27.2475 227.083 27.3351 227.056C27.4239 227.029 27.5026 226.989 27.5713 226.937C27.6399 226.884 27.6968 226.819 27.7417 226.744C27.7879 226.668 27.8199 226.581 27.8376 226.484L28.6153 226.488C28.5952 226.655 28.5449 226.816 28.4644 226.971C28.3851 227.125 28.278 227.263 28.143 227.385C28.0093 227.505 27.8495 227.601 27.6636 227.672C27.479 227.742 27.27 227.777 27.0368 227.777C26.7125 227.777 26.4225 227.704 26.1668 227.557C25.9123 227.41 25.7111 227.198 25.5631 226.919C25.4163 226.641 25.343 226.304 25.343 225.909C25.343 225.513 25.4175 225.175 25.5667 224.897C25.7158 224.619 25.9182 224.407 26.1739 224.261C26.4296 224.115 26.7172 224.041 27.0368 224.041C27.2475 224.041 27.4429 224.071 27.6228 224.13C27.8039 224.189 27.9643 224.276 28.104 224.389C28.2436 224.502 28.3573 224.64 28.4449 224.803C28.5336 224.966 28.5905 225.153 28.6153 225.364ZM29.1524 227.727V225H29.8857V225.476H29.9142C29.9639 225.307 30.0473 225.179 30.1645 225.092C30.2817 225.005 30.4166 224.961 30.5693 224.961C30.6072 224.961 30.6481 224.963 30.6919 224.968C30.7356 224.973 30.7741 224.979 30.8073 224.988V225.659C30.7718 225.648 30.7226 225.639 30.6599 225.63C30.5972 225.622 30.5397 225.618 30.4877 225.618C30.3764 225.618 30.277 225.642 30.1894 225.691C30.103 225.738 30.0343 225.804 29.9834 225.89C29.9337 225.975 29.9088 226.073 29.9088 226.184V227.727H29.1524ZM32.3143 227.781C32.0337 227.781 31.7923 227.724 31.5898 227.61C31.3886 227.495 31.2335 227.333 31.1246 227.124C31.0157 226.913 30.9613 226.664 30.9613 226.376C30.9613 226.096 31.0157 225.849 31.1246 225.637C31.2335 225.426 31.3868 225.26 31.5845 225.142C31.7834 225.024 32.0166 224.964 32.2841 224.964C32.464 224.964 32.6315 224.993 32.7866 225.051C32.9428 225.108 33.079 225.194 33.195 225.309C33.3121 225.424 33.4033 225.568 33.4684 225.742C33.5335 225.915 33.5661 226.117 33.5661 226.349V226.557H31.2631V226.088H32.854C32.854 225.98 32.8304 225.883 32.783 225.799C32.7357 225.715 32.67 225.649 32.5859 225.602C32.5031 225.553 32.4066 225.529 32.2965 225.529C32.1817 225.529 32.0799 225.556 31.9911 225.609C31.9035 225.661 31.8349 225.732 31.7852 225.82C31.7354 225.908 31.71 226.006 31.7088 226.113V226.559C31.7088 226.694 31.7337 226.81 31.7834 226.909C31.8343 227.007 31.9059 227.083 31.9982 227.136C32.0906 227.189 32.2 227.216 32.3267 227.216C32.4107 227.216 32.4877 227.204 32.5575 227.18C32.6274 227.157 32.6871 227.121 32.7369 227.074C32.7866 227.027 32.8245 226.969 32.8505 226.9L33.5501 226.946C33.5146 227.114 33.4418 227.261 33.3317 227.386C33.2228 227.511 33.0819 227.608 32.9091 227.678C32.7375 227.746 32.5392 227.781 32.3143 227.781ZM34.8374 227.779C34.6634 227.779 34.5083 227.749 34.3722 227.688C34.236 227.627 34.1283 227.536 34.049 227.417C33.9709 227.296 33.9318 227.145 33.9318 226.966C33.9318 226.814 33.9596 226.687 34.0153 226.584C34.0709 226.481 34.1467 226.398 34.2425 226.335C34.3384 226.272 34.4473 226.225 34.5692 226.193C34.6924 226.161 34.8214 226.139 34.9563 226.126C35.1149 226.109 35.2428 226.094 35.3398 226.08C35.4369 226.064 35.5073 226.042 35.5511 226.012C35.5949 225.982 35.6168 225.939 35.6168 225.881V225.87C35.6168 225.758 35.5813 225.671 35.5103 225.609C35.4405 225.547 35.341 225.517 35.212 225.517C35.0759 225.517 34.9676 225.547 34.8871 225.607C34.8066 225.666 34.7533 225.741 34.7273 225.831L34.0277 225.774C34.0632 225.608 34.133 225.465 34.2372 225.344C34.3414 225.223 34.4757 225.129 34.6403 225.064C34.806 224.998 34.9978 224.964 35.2156 224.964C35.3671 224.964 35.5121 224.982 35.6506 225.018C35.7902 225.053 35.9139 225.108 36.0217 225.183C36.1306 225.257 36.2164 225.353 36.2791 225.471C36.3419 225.587 36.3732 225.726 36.3732 225.888V227.727H35.6559V227.349H35.6346C35.5908 227.434 35.5322 227.509 35.4588 227.575C35.3854 227.638 35.2972 227.689 35.1942 227.725C35.0913 227.761 34.9723 227.779 34.8374 227.779ZM35.054 227.257C35.1652 227.257 35.2635 227.235 35.3487 227.191C35.4339 227.146 35.5008 227.086 35.5494 227.01C35.5979 226.934 35.6222 226.848 35.6222 226.752V226.463C35.5985 226.478 35.5659 226.493 35.5245 226.506C35.4843 226.518 35.4387 226.529 35.3878 226.539C35.3369 226.549 35.286 226.558 35.2351 226.566C35.1842 226.573 35.138 226.58 35.0966 226.586C35.0078 226.599 34.9303 226.619 34.864 226.648C34.7977 226.676 34.7462 226.715 34.7095 226.763C34.6728 226.81 34.6545 226.87 34.6545 226.941C34.6545 227.044 34.6918 227.122 34.7663 227.177C34.8421 227.23 34.938 227.257 35.054 227.257ZM38.4107 225V225.568H36.7683V225H38.4107ZM37.1412 224.347H37.8975V226.889C37.8975 226.959 37.9082 227.013 37.9295 227.053C37.9508 227.09 37.9804 227.117 38.0183 227.132C38.0574 227.148 38.1023 227.156 38.1532 227.156C38.1887 227.156 38.2243 227.153 38.2598 227.147C38.2953 227.14 38.3225 227.134 38.3414 227.131L38.4604 227.694C38.4225 227.705 38.3693 227.719 38.3006 227.734C38.2319 227.751 38.1485 227.761 38.0502 227.765C37.868 227.772 37.7082 227.747 37.5708 227.692C37.4347 227.636 37.3288 227.55 37.253 227.433C37.1773 227.315 37.14 227.167 37.1412 226.989V224.347ZM40.117 227.781C39.8365 227.781 39.595 227.724 39.3926 227.61C39.1913 227.495 39.0363 227.333 38.9274 227.124C38.8185 226.913 38.764 226.664 38.764 226.376C38.764 226.096 38.8185 225.849 38.9274 225.637C39.0363 225.426 39.1896 225.26 39.3873 225.142C39.5861 225.024 39.8193 224.964 40.0868 224.964C40.2667 224.964 40.4342 224.993 40.5893 225.051C40.7456 225.108 40.8817 225.194 40.9977 225.309C41.1149 225.424 41.206 225.568 41.2711 225.742C41.3362 225.915 41.3688 226.117 41.3688 226.349V226.557H39.0659V226.088H40.6568C40.6568 225.98 40.6331 225.883 40.5858 225.799C40.5384 225.715 40.4727 225.649 40.3887 225.602C40.3058 225.553 40.2093 225.529 40.0993 225.529C39.9844 225.529 39.8826 225.556 39.7939 225.609C39.7063 225.661 39.6376 225.732 39.5879 225.82C39.5382 225.908 39.5127 226.006 39.5115 226.113V226.559C39.5115 226.694 39.5364 226.81 39.5861 226.909C39.637 227.007 39.7086 227.083 39.801 227.136C39.8933 227.189 40.0028 227.216 40.1294 227.216C40.2135 227.216 40.2904 227.204 40.3603 227.18C40.4301 227.157 40.4899 227.121 40.5396 227.074C40.5893 227.027 40.6272 226.969 40.6532 226.9L41.3528 226.946C41.3173 227.114 41.2445 227.261 41.1344 227.386C41.0255 227.511 40.8846 227.608 40.7118 227.678C40.5402 227.746 40.3419 227.781 40.117 227.781ZM42.8674 227.772C42.6602 227.772 42.4726 227.718 42.3045 227.612C42.1376 227.504 42.005 227.346 41.9068 227.138C41.8097 226.928 41.7612 226.671 41.7612 226.367C41.7612 226.055 41.8115 225.795 41.9121 225.588C42.0127 225.379 42.1465 225.224 42.3134 225.121C42.4815 225.017 42.6655 224.964 42.8656 224.964C43.0183 224.964 43.1455 224.991 43.2473 225.043C43.3503 225.094 43.4332 225.157 43.4959 225.234C43.5598 225.31 43.6084 225.385 43.6415 225.458H43.6646V224.091H44.4192V227.727H43.6735V227.29H43.6415C43.606 227.366 43.5557 227.441 43.4906 227.516C43.4267 227.589 43.3432 227.65 43.2402 227.699C43.1384 227.747 43.0141 227.772 42.8674 227.772ZM43.1071 227.17C43.229 227.17 43.332 227.137 43.416 227.07C43.5012 227.003 43.5663 226.909 43.6113 226.788C43.6575 226.667 43.6806 226.526 43.6806 226.364C43.6806 226.201 43.6581 226.061 43.6131 225.941C43.5681 225.821 43.503 225.729 43.4178 225.664C43.3326 225.599 43.229 225.566 43.1071 225.566C42.9828 225.566 42.878 225.6 42.7928 225.668C42.7076 225.735 42.6431 225.829 42.5993 225.948C42.5555 226.068 42.5336 226.206 42.5336 226.364C42.5336 226.522 42.5555 226.663 42.5993 226.784C42.6442 226.905 42.7087 227 42.7928 227.069C42.878 227.136 42.9828 227.17 43.1071 227.17ZM46.2125 227.727V224.091H46.9689V225.458H46.992C47.0252 225.385 47.0731 225.31 47.1358 225.234C47.1998 225.157 47.2826 225.094 47.3844 225.043C47.4874 224.991 47.6152 224.964 47.7679 224.964C47.9668 224.964 48.1503 225.017 48.3184 225.121C48.4864 225.224 48.6208 225.379 48.7214 225.588C48.822 225.795 48.8723 226.055 48.8723 226.367C48.8723 226.671 48.8232 226.928 48.725 227.138C48.6279 227.346 48.4953 227.504 48.3272 227.612C48.1603 227.718 47.9733 227.772 47.7662 227.772C47.6194 227.772 47.4945 227.747 47.3915 227.699C47.2897 227.65 47.2063 227.589 47.1412 227.516C47.0761 227.441 47.0263 227.366 46.992 227.29H46.9583V227.727H46.2125ZM46.9529 226.364C46.9529 226.526 46.9754 226.667 47.0204 226.788C47.0654 226.909 47.1305 227.003 47.2157 227.07C47.301 227.137 47.4045 227.17 47.5265 227.17C47.6496 227.17 47.7537 227.136 47.839 227.069C47.9242 227 47.9887 226.905 48.0325 226.784C48.0775 226.663 48.1 226.522 48.1 226.364C48.1 226.206 48.0781 226.068 48.0343 225.948C47.9905 225.829 47.926 225.735 47.8407 225.668C47.7555 225.6 47.6507 225.566 47.5265 225.566C47.4033 225.566 47.2992 225.599 47.214 225.664C47.1299 225.729 47.0654 225.821 47.0204 225.941C46.9754 226.061 46.9529 226.201 46.9529 226.364ZM49.7561 228.75C49.6602 228.75 49.5703 228.742 49.4862 228.727C49.4034 228.713 49.3347 228.694 49.2803 228.672L49.4507 228.107C49.5395 228.134 49.6194 228.149 49.6904 228.152C49.7626 228.154 49.8248 228.137 49.8769 228.102C49.9301 228.066 49.9733 228.006 50.0065 227.921L50.0509 227.805L49.0725 225H49.868L50.4326 227.003H50.461L51.031 225H51.8318L50.7718 228.022C50.7209 228.169 50.6516 228.297 50.564 228.406C50.4776 228.516 50.3681 228.6 50.2355 228.659C50.103 228.72 49.9432 228.75 49.7561 228.75ZM55.3629 225.137C55.3487 224.993 55.2878 224.882 55.18 224.803C55.0723 224.724 54.9261 224.684 54.7415 224.684C54.616 224.684 54.5101 224.702 54.4237 224.737C54.3372 224.772 54.271 224.819 54.2248 224.881C54.1798 224.943 54.1573 225.012 54.1573 225.091C54.1549 225.156 54.1686 225.212 54.1982 225.261C54.2289 225.31 54.271 225.352 54.3242 225.387C54.3775 225.421 54.439 225.452 54.5089 225.478C54.5787 225.502 54.6533 225.524 54.7326 225.542L55.0593 225.62C55.2179 225.655 55.3635 225.703 55.4961 225.762C55.6287 225.821 55.7435 225.894 55.8406 225.98C55.9376 226.067 56.0128 226.168 56.0661 226.286C56.1205 226.403 56.1483 226.537 56.1495 226.689C56.1483 226.911 56.0915 227.104 55.979 227.267C55.8678 227.43 55.7068 227.556 55.4961 227.646C55.2866 227.734 55.0339 227.779 54.7379 227.779C54.4444 227.779 54.1887 227.734 53.9709 227.644C53.7543 227.554 53.585 227.421 53.4631 227.244C53.3423 227.067 53.279 226.847 53.2731 226.586H54.017C54.0253 226.707 54.0603 226.809 54.1218 226.891C54.1845 226.971 54.268 227.032 54.3722 227.074C54.4775 227.114 54.5965 227.134 54.729 227.134C54.8593 227.134 54.9723 227.115 55.0682 227.077C55.1652 227.04 55.2404 226.987 55.2937 226.919C55.3469 226.852 55.3736 226.774 55.3736 226.687C55.3736 226.605 55.3493 226.536 55.3008 226.481C55.2534 226.425 55.1836 226.378 55.0913 226.339C55.0001 226.3 54.8883 226.264 54.7557 226.232L54.3597 226.133C54.0531 226.058 53.8111 225.942 53.6335 225.783C53.456 225.624 53.3678 225.411 53.369 225.142C53.3678 224.922 53.4264 224.73 53.5447 224.565C53.6643 224.4 53.8282 224.272 54.0366 224.18C54.2449 224.087 54.4817 224.041 54.7468 224.041C55.0167 224.041 55.2522 224.087 55.4535 224.18C55.6559 224.272 55.8133 224.4 55.9258 224.565C56.0382 224.73 56.0962 224.92 56.0998 225.137H55.3629ZM57.4301 227.779C57.2561 227.779 57.1011 227.749 56.9649 227.688C56.8288 227.627 56.7211 227.536 56.6418 227.417C56.5637 227.296 56.5246 227.145 56.5246 226.966C56.5246 226.814 56.5524 226.687 56.608 226.584C56.6637 226.481 56.7394 226.398 56.8353 226.335C56.9312 226.272 57.0401 226.225 57.162 226.193C57.2851 226.161 57.4142 226.139 57.5491 226.126C57.7077 226.109 57.8356 226.094 57.9326 226.08C58.0297 226.064 58.1001 226.042 58.1439 226.012C58.1877 225.982 58.2096 225.939 58.2096 225.881V225.87C58.2096 225.758 58.1741 225.671 58.1031 225.609C58.0332 225.547 57.9338 225.517 57.8048 225.517C57.6686 225.517 57.5603 225.547 57.4798 225.607C57.3994 225.666 57.3461 225.741 57.32 225.831L56.6205 225.774C56.656 225.608 56.7258 225.465 56.83 225.344C56.9342 225.223 57.0685 225.129 57.233 225.064C57.3988 224.998 57.5905 224.964 57.8083 224.964C57.9598 224.964 58.1048 224.982 58.2433 225.018C58.383 225.053 58.5067 225.108 58.6144 225.183C58.7233 225.257 58.8092 225.353 58.8719 225.471C58.9346 225.587 58.966 225.726 58.966 225.888V227.727H58.2487V227.349H58.2274C58.1836 227.434 58.125 227.509 58.0516 227.575C57.9782 227.638 57.89 227.689 57.787 227.725C57.684 227.761 57.5651 227.779 57.4301 227.779ZM57.6468 227.257C57.758 227.257 57.8563 227.235 57.9415 227.191C58.0267 227.146 58.0936 227.086 58.1421 227.01C58.1907 226.934 58.2149 226.848 58.2149 226.752V226.463C58.1913 226.478 58.1587 226.493 58.1173 226.506C58.077 226.518 58.0315 226.529 57.9806 226.539C57.9297 226.549 57.8788 226.558 57.8279 226.566C57.777 226.573 57.7308 226.58 57.6894 226.586C57.6006 226.599 57.5231 226.619 57.4568 226.648C57.3905 226.676 57.339 226.715 57.3023 226.763C57.2656 226.81 57.2472 226.87 57.2472 226.941C57.2472 227.044 57.2845 227.122 57.3591 227.177C57.4349 227.23 57.5307 227.257 57.6468 227.257ZM61.9978 225L61.0443 227.727H60.192L59.2385 225H60.0376L60.604 226.951H60.6324L61.197 225H61.9978ZM63.0893 227.779C62.9153 227.779 62.7602 227.749 62.6241 227.688C62.488 227.627 62.3803 227.536 62.301 227.417C62.2228 227.296 62.1838 227.145 62.1838 226.966C62.1838 226.814 62.2116 226.687 62.2672 226.584C62.3229 226.481 62.3986 226.398 62.4945 226.335C62.5904 226.272 62.6993 226.225 62.8212 226.193C62.9443 226.161 63.0733 226.139 63.2083 226.126C63.3669 226.109 63.4947 226.094 63.5918 226.08C63.6889 226.064 63.7593 226.042 63.8031 226.012C63.8469 225.982 63.8688 225.939 63.8688 225.881V225.87C63.8688 225.758 63.8333 225.671 63.7623 225.609C63.6924 225.547 63.593 225.517 63.464 225.517C63.3278 225.517 63.2195 225.547 63.139 225.607C63.0585 225.666 63.0053 225.741 62.9792 225.831L62.2797 225.774C62.3152 225.608 62.385 225.465 62.4892 225.344C62.5933 225.223 62.7277 225.129 62.8922 225.064C63.0579 224.998 63.2497 224.964 63.4675 224.964C63.619 224.964 63.764 224.982 63.9025 225.018C64.0422 225.053 64.1659 225.108 64.2736 225.183C64.3825 225.257 64.4683 225.353 64.5311 225.471C64.5938 225.587 64.6252 225.726 64.6252 225.888V227.727H63.9078V227.349H63.8865C63.8427 227.434 63.7842 227.509 63.7108 227.575C63.6374 227.638 63.5492 227.689 63.4462 227.725C63.3432 227.761 63.2243 227.779 63.0893 227.779ZM63.3059 227.257C63.4172 227.257 63.5154 227.235 63.6007 227.191C63.6859 227.146 63.7528 227.086 63.8013 227.01C63.8498 226.934 63.8741 226.848 63.8741 226.752V226.463C63.8504 226.478 63.8179 226.493 63.7765 226.506C63.7362 226.518 63.6906 226.529 63.6397 226.539C63.5888 226.549 63.5379 226.558 63.487 226.566C63.4361 226.573 63.39 226.58 63.3485 226.586C63.2598 226.599 63.1822 226.619 63.1159 226.648C63.0497 226.676 62.9982 226.715 62.9615 226.763C62.9248 226.81 62.9064 226.87 62.9064 226.941C62.9064 227.044 62.9437 227.122 63.0183 227.177C63.094 227.23 63.1899 227.257 63.3059 227.257ZM65.9684 226.151V227.727H65.212V225H65.9329V225.481H65.9648C66.0252 225.323 66.1264 225.197 66.2685 225.105C66.4105 225.011 66.5827 224.964 66.7852 224.964C66.9746 224.964 67.1397 225.006 67.2805 225.089C67.4214 225.172 67.5309 225.29 67.609 225.444C67.6871 225.597 67.7262 225.779 67.7262 225.991V227.727H66.9698V226.126C66.971 225.959 66.9284 225.829 66.842 225.735C66.7556 225.64 66.6366 225.593 66.4851 225.593C66.3833 225.593 66.2933 225.615 66.2152 225.659C66.1383 225.703 66.0779 225.766 66.0341 225.85C65.9915 225.933 65.9696 226.033 65.9684 226.151ZM69.0787 226.151V227.727H68.3224V225H69.0432V225.481H69.0752C69.1356 225.323 69.2368 225.197 69.3788 225.105C69.5209 225.011 69.6931 224.964 69.8955 224.964C70.0849 224.964 70.25 225.006 70.3909 225.089C70.5318 225.172 70.6412 225.29 70.7194 225.444C70.7975 225.597 70.8366 225.779 70.8366 225.991V227.727H70.0802V226.126C70.0814 225.959 70.0387 225.829 69.9523 225.735C69.8659 225.64 69.747 225.593 69.5954 225.593C69.4936 225.593 69.4037 225.615 69.3256 225.659C69.2486 225.703 69.1882 225.766 69.1444 225.85C69.1018 225.933 69.0799 226.033 69.0787 226.151ZM72.2104 227.779C72.0364 227.779 71.8813 227.749 71.7452 227.688C71.6091 227.627 71.5014 227.536 71.4221 227.417C71.3439 227.296 71.3049 227.145 71.3049 226.966C71.3049 226.814 71.3327 226.687 71.3883 226.584C71.444 226.481 71.5197 226.398 71.6156 226.335C71.7115 226.272 71.8204 226.225 71.9423 226.193C72.0654 226.161 72.1944 226.139 72.3294 226.126C72.488 226.109 72.6158 226.094 72.7129 226.08C72.81 226.064 72.8804 226.042 72.9242 226.012C72.968 225.982 72.9899 225.939 72.9899 225.881V225.87C72.9899 225.758 72.9544 225.671 72.8833 225.609C72.8135 225.547 72.7141 225.517 72.585 225.517C72.4489 225.517 72.3406 225.547 72.2601 225.607C72.1796 225.666 72.1264 225.741 72.1003 225.831L71.4007 225.774C71.4363 225.608 71.5061 225.465 71.6103 225.344C71.7144 225.223 71.8488 225.129 72.0133 225.064C72.179 224.998 72.3708 224.964 72.5886 224.964C72.7401 224.964 72.8851 224.982 73.0236 225.018C73.1633 225.053 73.287 225.108 73.3947 225.183C73.5036 225.257 73.5894 225.353 73.6522 225.471C73.7149 225.587 73.7463 225.726 73.7463 225.888V227.727H73.0289V227.349H73.0076C72.9638 227.434 72.9052 227.509 72.8319 227.575C72.7585 227.638 72.6703 227.689 72.5673 227.725C72.4643 227.761 72.3453 227.779 72.2104 227.779ZM72.427 227.257C72.5383 227.257 72.6365 227.235 72.7218 227.191C72.807 227.146 72.8739 227.086 72.9224 227.01C72.9709 226.934 72.9952 226.848 72.9952 226.752V226.463C72.9715 226.478 72.939 226.493 72.8975 226.506C72.8573 226.518 72.8117 226.529 72.7608 226.539C72.7099 226.549 72.659 226.558 72.6081 226.566C72.5572 226.573 72.5111 226.58 72.4696 226.586C72.3809 226.599 72.3033 226.619 72.237 226.648C72.1708 226.676 72.1193 226.715 72.0826 226.763C72.0459 226.81 72.0275 226.87 72.0275 226.941C72.0275 227.044 72.0648 227.122 72.1394 227.177C72.2151 227.23 72.311 227.257 72.427 227.257ZM75.0895 226.151V227.727H74.3331V224.091H75.0682V225.481H75.1001C75.1617 225.32 75.2611 225.194 75.3984 225.103C75.5357 225.011 75.708 224.964 75.9151 224.964C76.1045 224.964 76.2696 225.006 76.4105 225.089C76.5526 225.17 76.6626 225.288 76.7408 225.442C76.8201 225.595 76.8591 225.778 76.858 225.991V227.727H76.1016V226.126C76.1027 225.958 76.0601 225.827 75.9737 225.733C75.8885 225.64 75.7689 225.593 75.6151 225.593C75.5121 225.593 75.4209 225.615 75.3416 225.659C75.2635 225.703 75.2019 225.766 75.157 225.85C75.1132 225.933 75.0907 226.033 75.0895 226.151ZM79.2816 224.091L80.1605 226.854H80.1942L81.0749 224.091H81.9272L80.6737 227.727H79.6829L78.4276 224.091H79.2816ZM82.3507 227.727V225H83.1071V227.727H82.3507ZM82.7306 224.648C82.6182 224.648 82.5217 224.611 82.4412 224.537C82.3619 224.461 82.3223 224.37 82.3223 224.265C82.3223 224.161 82.3619 224.071 82.4412 223.997C82.5217 223.921 82.6182 223.883 82.7306 223.883C82.8431 223.883 82.939 223.921 83.0183 223.997C83.0988 224.071 83.139 224.161 83.139 224.265C83.139 224.37 83.0988 224.461 83.0183 224.537C82.939 224.611 82.8431 224.648 82.7306 224.648ZM83.6988 227.727V227.276L85.034 225.623V225.604H83.7449V225H85.9449V225.492L84.6913 227.104V227.124H85.991V227.727H83.6988ZM87.7342 227.781C87.4537 227.781 87.2122 227.724 87.0098 227.61C86.8085 227.495 86.6535 227.333 86.5446 227.124C86.4357 226.913 86.3812 226.664 86.3812 226.376C86.3812 226.096 86.4357 225.849 86.5446 225.637C86.6535 225.426 86.8068 225.26 87.0044 225.142C87.2033 225.024 87.4365 224.964 87.704 224.964C87.8839 224.964 88.0514 224.993 88.2065 225.051C88.3627 225.108 88.4989 225.194 88.6149 225.309C88.7321 225.424 88.8232 225.568 88.8883 225.742C88.9534 225.915 88.986 226.117 88.986 226.349V226.557H86.6831V226.088H88.274C88.274 225.98 88.2503 225.883 88.2029 225.799C88.1556 225.715 88.0899 225.649 88.0059 225.602C87.923 225.553 87.8265 225.529 87.7164 225.529C87.6016 225.529 87.4998 225.556 87.411 225.609C87.3234 225.661 87.2548 225.732 87.2051 225.82C87.1554 225.908 87.1299 226.006 87.1287 226.113V226.559C87.1287 226.694 87.1536 226.81 87.2033 226.909C87.2542 227.007 87.3258 227.083 87.4181 227.136C87.5105 227.189 87.62 227.216 87.7466 227.216C87.8307 227.216 87.9076 227.204 87.9775 227.18C88.0473 227.157 88.1071 227.121 88.1568 227.074C88.2065 227.027 88.2444 226.969 88.2704 226.9L88.97 226.946C88.9345 227.114 88.8617 227.261 88.7516 227.386C88.6427 227.511 88.5018 227.608 88.329 227.678C88.1574 227.746 87.9591 227.781 87.7342 227.781Z" fill="#83555E"/>
<path d="M26.8593 234.091V234.659H25.176V234.091H26.8593ZM25.5613 236.818V233.894C25.5613 233.696 25.5998 233.532 25.6768 233.402C25.7549 233.272 25.8614 233.174 25.9964 233.109C26.1313 233.044 26.2846 233.011 26.4562 233.011C26.5722 233.011 26.6782 233.02 26.7741 233.038C26.8711 233.056 26.9433 233.072 26.9907 233.086L26.8557 233.654C26.8261 233.645 26.7894 233.636 26.7456 233.627C26.703 233.619 26.6592 233.615 26.6143 233.615C26.503 233.615 26.4255 233.641 26.3817 233.693C26.3379 233.744 26.316 233.816 26.316 233.908V236.818H25.5613ZM27.3214 236.818V234.091H28.0547V234.567H28.0831C28.1328 234.397 28.2163 234.27 28.3335 234.183C28.4506 234.096 28.5856 234.052 28.7383 234.052C28.7762 234.052 28.817 234.054 28.8608 234.059C28.9046 234.064 28.9431 234.07 28.9762 234.078V234.75C28.9407 234.739 28.8916 234.73 28.8288 234.721C28.7661 234.713 28.7087 234.709 28.6566 234.709C28.5453 234.709 28.4459 234.733 28.3583 234.782C28.2719 234.829 28.2032 234.895 28.1523 234.98C28.1026 235.066 28.0778 235.164 28.0778 235.275V236.818H27.3214ZM30.4726 236.871C30.1968 236.871 29.9582 236.813 29.757 236.696C29.557 236.577 29.4025 236.413 29.2936 236.202C29.1847 235.99 29.1302 235.745 29.1302 235.465C29.1302 235.183 29.1847 234.937 29.2936 234.727C29.4025 234.515 29.557 234.35 29.757 234.233C29.9582 234.115 30.1968 234.055 30.4726 234.055C30.7484 234.055 30.9863 234.115 31.1863 234.233C31.3876 234.35 31.5426 234.515 31.6515 234.727C31.7604 234.937 31.8149 235.183 31.8149 235.465C31.8149 235.745 31.7604 235.99 31.6515 236.202C31.5426 236.413 31.3876 236.577 31.1863 236.696C30.9863 236.813 30.7484 236.871 30.4726 236.871ZM30.4761 236.286C30.6016 236.286 30.7064 236.25 30.7904 236.179C30.8744 236.107 30.9378 236.009 30.9804 235.884C31.0242 235.76 31.0461 235.618 31.0461 235.46C31.0461 235.301 31.0242 235.16 30.9804 235.036C30.9378 234.911 30.8744 234.813 30.7904 234.741C30.7064 234.669 30.6016 234.632 30.4761 234.632C30.3495 234.632 30.2429 234.669 30.1565 234.741C30.0713 234.813 30.0068 234.911 29.963 235.036C29.9204 235.16 29.8991 235.301 29.8991 235.46C29.8991 235.618 29.9204 235.76 29.963 235.884C30.0068 236.009 30.0713 236.107 30.1565 236.179C30.2429 236.25 30.3495 236.286 30.4761 236.286ZM32.3067 236.818V234.091H33.0276V234.572H33.0596C33.1164 234.412 33.2111 234.286 33.3437 234.194C33.4762 234.102 33.6349 234.055 33.8195 234.055C34.0065 234.055 34.1657 234.102 34.2971 234.196C34.4285 234.288 34.5161 234.413 34.5599 234.572H34.5883C34.644 234.416 34.7446 234.291 34.8902 234.197C35.037 234.103 35.2104 234.055 35.4104 234.055C35.6649 234.055 35.8715 234.136 36.0301 234.299C36.1899 234.46 36.2698 234.688 36.2698 234.984V236.818H35.5152V235.133C35.5152 234.982 35.4749 234.868 35.3944 234.792C35.314 234.716 35.2133 234.679 35.0926 234.679C34.9553 234.679 34.8482 234.722 34.7712 234.81C34.6943 234.896 34.6558 235.011 34.6558 235.153V236.818H33.9225V235.117C33.9225 234.983 33.884 234.877 33.8071 234.798C33.7313 234.718 33.6313 234.679 33.507 234.679C33.423 234.679 33.3472 234.7 33.2797 234.743C33.2135 234.784 33.1608 234.843 33.1217 234.918C33.0827 234.993 33.0631 235.08 33.0631 235.181V236.818H32.3067ZM41.0803 233.182V236.818H40.4162L38.8342 234.529H38.8075V236.818H38.0387V233.182H38.7134L40.283 235.469H40.315V233.182H41.0803ZM42.9335 236.871C42.6577 236.871 42.4192 236.813 42.218 236.696C42.0179 236.577 41.8634 236.413 41.7545 236.202C41.6456 235.99 41.5912 235.745 41.5912 235.465C41.5912 235.183 41.6456 234.937 41.7545 234.727C41.8634 234.515 42.0179 234.35 42.218 234.233C42.4192 234.115 42.6577 234.055 42.9335 234.055C43.2093 234.055 43.4472 234.115 43.6473 234.233C43.8485 234.35 44.0036 234.515 44.1125 234.727C44.2214 234.937 44.2758 235.183 44.2758 235.465C44.2758 235.745 44.2214 235.99 44.1125 236.202C44.0036 236.413 43.8485 236.577 43.6473 236.696C43.4472 236.813 43.2093 236.871 42.9335 236.871ZM42.9371 236.286C43.0625 236.286 43.1673 236.25 43.2513 236.179C43.3354 236.107 43.3987 236.009 43.4413 235.884C43.4851 235.76 43.507 235.618 43.507 235.46C43.507 235.301 43.4851 235.16 43.4413 235.036C43.3987 234.911 43.3354 234.813 43.2513 234.741C43.1673 234.669 43.0625 234.632 42.9371 234.632C42.8104 234.632 42.7039 234.669 42.6175 234.741C42.5322 234.813 42.4677 234.911 42.4239 235.036C42.3813 235.16 42.36 235.301 42.36 235.46C42.36 235.618 42.3813 235.76 42.4239 235.884C42.4677 236.009 42.5322 236.107 42.6175 236.179C42.7039 236.25 42.8104 236.286 42.9371 236.286ZM46.5166 235.657V234.091H47.273V236.818H46.5468V236.323H46.5184C46.4568 236.483 46.3544 236.611 46.2112 236.708C46.0692 236.805 45.8957 236.854 45.691 236.854C45.5087 236.854 45.3483 236.812 45.2098 236.729C45.0713 236.647 44.963 236.529 44.8849 236.376C44.8079 236.223 44.7689 236.04 44.7677 235.827V234.091H45.5241V235.692C45.5252 235.853 45.5684 235.981 45.6537 236.074C45.7389 236.168 45.8531 236.214 45.9964 236.214C46.0875 236.214 46.1727 236.194 46.252 236.152C46.3314 236.11 46.3953 236.047 46.4438 235.964C46.4935 235.881 46.5178 235.779 46.5166 235.657ZM48.6344 235.241V236.818H47.878V234.091H48.5989V234.572H48.6309C48.6912 234.413 48.7924 234.288 48.9345 234.196C49.0765 234.102 49.2488 234.055 49.4512 234.055C49.6406 234.055 49.8057 234.097 49.9466 234.18C50.0874 234.263 50.1969 234.381 50.275 234.535C50.3532 234.687 50.3922 234.87 50.3922 235.082V236.818H49.6358V235.217C49.637 235.05 49.5944 234.92 49.508 234.826C49.4216 234.731 49.3026 234.684 49.1511 234.684C49.0493 234.684 48.9593 234.706 48.8812 234.75C48.8043 234.793 48.7439 234.857 48.7001 234.941C48.6575 235.024 48.6356 235.124 48.6344 235.241ZM52.1598 236.818V233.182H53.5945C53.8703 233.182 54.1052 233.234 54.2994 233.34C54.4935 233.444 54.6415 233.589 54.7433 233.775C54.8462 233.96 54.8977 234.173 54.8977 234.414C54.8977 234.656 54.8456 234.869 54.7415 235.053C54.6373 235.238 54.4864 235.382 54.2887 235.485C54.0922 235.588 53.8543 235.639 53.5749 235.639H52.6605V235.023H53.4506C53.5986 235.023 53.7205 234.998 53.8164 234.947C53.9135 234.895 53.9857 234.823 54.033 234.732C54.0816 234.64 54.1058 234.534 54.1058 234.414C54.1058 234.293 54.0816 234.188 54.033 234.098C53.9857 234.007 53.9135 233.936 53.8164 233.887C53.7193 233.836 53.5962 233.81 53.4471 233.81H52.9286V236.818H52.1598ZM55.3829 236.818V234.091H56.1162V234.567H56.1446C56.1943 234.397 56.2778 234.27 56.395 234.183C56.5122 234.096 56.6471 234.052 56.7998 234.052C56.8377 234.052 56.8785 234.054 56.9223 234.059C56.9661 234.064 57.0046 234.07 57.0377 234.078V234.75C57.0022 234.739 56.9531 234.73 56.8904 234.721C56.8276 234.713 56.7702 234.709 56.7181 234.709C56.6069 234.709 56.5074 234.733 56.4198 234.782C56.3334 234.829 56.2648 234.895 56.2139 234.98C56.1642 235.066 56.1393 235.164 56.1393 235.275V236.818H55.3829ZM58.5341 236.871C58.2583 236.871 58.0198 236.813 57.8185 236.696C57.6185 236.577 57.464 236.413 57.3551 236.202C57.2462 235.99 57.1918 235.745 57.1918 235.465C57.1918 235.183 57.2462 234.937 57.3551 234.727C57.464 234.515 57.6185 234.35 57.8185 234.233C58.0198 234.115 58.2583 234.055 58.5341 234.055C58.8099 234.055 59.0478 234.115 59.2479 234.233C59.4491 234.35 59.6042 234.515 59.7131 234.727C59.822 234.937 59.8764 235.183 59.8764 235.465C59.8764 235.745 59.822 235.99 59.7131 236.202C59.6042 236.413 59.4491 236.577 59.2479 236.696C59.0478 236.813 58.8099 236.871 58.5341 236.871ZM58.5376 236.286C58.6631 236.286 58.7679 236.25 58.8519 236.179C58.936 236.107 58.9993 236.009 59.0419 235.884C59.0857 235.76 59.1076 235.618 59.1076 235.46C59.1076 235.301 59.0857 235.16 59.0419 235.036C58.9993 234.911 58.936 234.813 58.8519 234.741C58.7679 234.669 58.6631 234.632 58.5376 234.632C58.411 234.632 58.3045 234.669 58.218 234.741C58.1328 234.813 58.0683 234.911 58.0245 235.036C57.9819 235.16 57.9606 235.301 57.9606 235.46C57.9606 235.618 57.9819 235.76 58.0245 235.884C58.0683 236.009 58.1328 236.107 58.218 236.179C58.3045 236.25 58.411 236.286 58.5376 236.286ZM60.3683 234.091H61.1246V236.953C61.1246 237.164 61.0832 237.334 61.0004 237.464C60.9175 237.595 60.7985 237.69 60.6435 237.75C60.4896 237.811 60.3055 237.841 60.0913 237.841C60.0652 237.841 60.0404 237.84 60.0167 237.839C59.9918 237.839 59.9658 237.839 59.9386 237.837V237.246C59.9587 237.247 59.9764 237.248 59.9918 237.248C60.006 237.249 60.0214 237.25 60.038 237.25C60.1599 237.25 60.2451 237.224 60.2937 237.172C60.3434 237.121 60.3683 237.044 60.3683 236.941V234.091ZM60.7447 233.739C60.6334 233.739 60.5375 233.702 60.457 233.627C60.3765 233.552 60.3363 233.461 60.3363 233.356C60.3363 233.252 60.3765 233.162 60.457 233.088C60.5375 233.012 60.6334 232.974 60.7447 232.974C60.8583 232.974 60.9548 233.012 61.0341 233.088C61.1146 233.162 61.1548 233.252 61.1548 233.356C61.1548 233.461 61.1146 233.552 61.0341 233.627C60.9548 233.702 60.8583 233.739 60.7447 233.739ZM62.9735 236.871C62.6929 236.871 62.4514 236.815 62.249 236.701C62.0478 236.586 61.8927 236.424 61.7838 236.214C61.6749 236.004 61.6205 235.755 61.6205 235.467C61.6205 235.186 61.6749 234.94 61.7838 234.728C61.8927 234.516 62.046 234.351 62.2437 234.233C62.4426 234.115 62.6758 234.055 62.9433 234.055C63.1232 234.055 63.2907 234.084 63.4458 234.142C63.602 234.199 63.7381 234.285 63.8541 234.4C63.9713 234.515 64.0625 234.659 64.1276 234.833C64.1927 235.006 64.2252 235.208 64.2252 235.44V235.648H61.9223V235.179H63.5132C63.5132 235.07 63.4896 234.974 63.4422 234.89C63.3949 234.806 63.3292 234.74 63.2451 234.693C63.1623 234.644 63.0658 234.62 62.9557 234.62C62.8409 234.62 62.7391 234.647 62.6503 234.7C62.5627 234.752 62.4941 234.822 62.4443 234.911C62.3946 234.999 62.3692 235.096 62.368 235.204V235.65C62.368 235.785 62.3928 235.901 62.4426 236C62.4935 236.098 62.5651 236.174 62.6574 236.227C62.7497 236.28 62.8592 236.307 62.9859 236.307C63.0699 236.307 63.1469 236.295 63.2167 236.271C63.2865 236.248 63.3463 236.212 63.396 236.165C63.4458 236.117 63.4836 236.059 63.5097 235.991L64.2093 236.037C64.1737 236.205 64.1009 236.352 63.9909 236.477C63.882 236.602 63.7411 236.699 63.5683 236.768C63.3966 236.837 63.1984 236.871 62.9735 236.871ZM65.9511 236.871C65.6717 236.871 65.4314 236.812 65.2302 236.694C65.0302 236.574 64.8763 236.409 64.7686 236.197C64.662 235.985 64.6088 235.741 64.6088 235.465C64.6088 235.186 64.6626 234.941 64.7703 234.73C64.8792 234.518 65.0337 234.353 65.2338 234.235C65.4338 234.115 65.6717 234.055 65.9475 234.055C66.1855 234.055 66.3938 234.099 66.5725 234.185C66.7513 234.271 66.8927 234.393 66.9969 234.549C67.1011 234.705 67.1585 234.889 67.1691 235.099H66.4553C66.4352 234.963 66.382 234.854 66.2955 234.771C66.2103 234.687 66.0985 234.645 65.96 234.645C65.8428 234.645 65.7404 234.677 65.6528 234.741C65.5664 234.803 65.4989 234.895 65.4504 235.016C65.4018 235.137 65.3776 235.283 65.3776 235.455C65.3776 235.629 65.4012 235.777 65.4486 235.898C65.4971 236.02 65.5652 236.113 65.6528 236.177C65.7404 236.241 65.8428 236.273 65.96 236.273C66.0464 236.273 66.1239 236.255 66.1926 236.22C66.2624 236.184 66.3198 236.133 66.3648 236.065C66.411 235.997 66.4411 235.914 66.4553 235.819H67.1691C67.1573 236.027 67.1005 236.21 66.9987 236.369C66.8981 236.526 66.759 236.649 66.5814 236.738C66.4039 236.827 66.1937 236.871 65.9511 236.871ZM69.104 234.091V234.659H67.4616V234.091H69.104ZM67.8345 233.437H68.5909V235.98C68.5909 236.05 68.6016 236.104 68.6229 236.143C68.6442 236.181 68.6738 236.208 68.7116 236.223C68.7507 236.239 68.7957 236.246 68.8466 236.246C68.8821 236.246 68.9176 236.243 68.9531 236.238C68.9886 236.23 69.0159 236.225 69.0348 236.222L69.1538 236.784C69.1159 236.796 69.0626 236.81 68.994 236.825C68.9253 236.842 68.8419 236.852 68.7436 236.855C68.5613 236.863 68.4015 236.838 68.2642 236.783C68.1281 236.727 68.0221 236.641 67.9464 236.523C67.8706 236.406 67.8333 236.258 67.8345 236.08V233.437Z" fill="#83555E"/>
<rect y="219" width="117" height="36" fill="#E9C798"/>
</svg>
