<svg width="157.5" height="156" viewBox="0 0 180 225" fill="none" xmlns="http://www.w3.org/2000/svg">
<g clip-path="url(#clip0_10_554)">
<path fill-rule="evenodd" clip-rule="evenodd" d="M86.0231 45H19.6875C15.03 45 11.25 48.78 11.25 53.4375V137.812C11.25 142.47 15.03 146.25 19.6875 146.25H25.3125V154.687C25.3125 156.24 26.5725 157.5 28.125 157.5H39.375C40.4381 157.5 41.4169 156.898 41.8894 155.947L46.7381 146.25H133.262L138.111 155.947C138.583 156.898 139.562 157.5 140.625 157.5H151.875C153.428 157.5 154.688 156.24 154.688 154.687V146.25H160.312C164.97 146.25 168.75 142.47 168.75 137.812V53.4375C168.75 48.78 164.97 45 160.312 45H93.9769L114.491 24.4912C115.588 23.3887 115.588 21.6112 114.491 20.5087C113.389 19.4118 111.611 19.4118 110.509 20.5087L90 41.0231L69.4912 20.5087C68.3888 19.4118 66.6112 19.4118 65.5088 20.5087C64.4119 21.6112 64.4119 23.3887 65.5088 24.4912L86.0231 45ZM40.4494 146.25H30.9375V151.875H37.6369L40.4494 146.25ZM149.062 146.25H139.551L142.363 151.875H149.062V146.25ZM134.961 140.625H160.312C161.865 140.625 163.125 139.365 163.125 137.812V53.4375C163.125 51.885 161.865 50.625 160.312 50.625H19.6875C18.135 50.625 16.875 51.885 16.875 53.4375V137.812C16.875 139.365 18.135 140.625 19.6875 140.625H134.961ZM135 59.0625C135 57.51 133.74 56.25 132.188 56.25H25.3125C23.76 56.25 22.5 57.51 22.5 59.0625V132.187C22.5 133.74 23.76 135 25.3125 135H132.188C133.74 135 135 133.74 135 132.187V59.0625ZM129.375 61.875V129.375H28.125V61.875H129.375ZM149.062 101.25C144.405 101.25 140.625 105.03 140.625 109.687C140.625 114.345 144.405 118.125 149.062 118.125C153.72 118.125 157.5 114.345 157.5 109.687C157.5 105.03 153.72 101.25 149.062 101.25ZM149.062 106.875C150.615 106.875 151.875 108.135 151.875 109.687C151.875 111.24 150.615 112.5 149.062 112.5C147.51 112.5 146.25 111.24 146.25 109.687C146.25 108.135 147.51 106.875 149.062 106.875ZM149.062 78.75C144.405 78.75 140.625 82.53 140.625 87.1875C140.625 91.845 144.405 95.625 149.062 95.625C153.72 95.625 157.5 91.845 157.5 87.1875C157.5 82.53 153.72 78.75 149.062 78.75ZM149.062 84.375C150.615 84.375 151.875 85.635 151.875 87.1875C151.875 88.74 150.615 90 149.062 90C147.51 90 146.25 88.74 146.25 87.1875C146.25 85.635 147.51 84.375 149.062 84.375ZM149.062 56.25C144.405 56.25 140.625 60.03 140.625 64.6875C140.625 69.345 144.405 73.125 149.062 73.125C153.72 73.125 157.5 69.345 157.5 64.6875C157.5 60.03 153.72 56.25 149.062 56.25ZM149.062 61.875C150.615 61.875 151.875 63.135 151.875 64.6875C151.875 66.24 150.615 67.5 149.062 67.5C147.51 67.5 146.25 66.24 146.25 64.6875C146.25 63.135 147.51 61.875 149.062 61.875Z" fill="#83555E"/>
</g>
<defs>
<clipPath id="clip0_10_554">
<rect width="180" height="225" fill="white"/>
</clipPath>
</defs>
</svg>
